<svg xmlns="http://www.w3.org/2000/svg" width="500" height="500" viewBox="0 0 500 500" version="1.1"><path d="M 237.250 34.689 C 238.213 34.941, 239.787 34.941, 240.750 34.689 C 241.713 34.438, 240.925 34.232, 239 34.232 C 237.075 34.232, 236.287 34.438, 237.250 34.689 M 260.250 34.689 C 261.212 34.941, 262.788 34.941, 263.750 34.689 C 264.712 34.438, 263.925 34.232, 262 34.232 C 260.075 34.232, 259.288 34.438, 260.250 34.689 M 231.500 49.950 C 170.866 56.006, 119.321 86.921, 85.526 137.500 C 59.800 176.003, 48.055 224.335, 53.451 269.500 C 57.582 304.077, 67.932 332.619, 86.221 359.868 C 113.528 400.553, 155.670 430.127, 203.158 441.932 C 247.888 453.052, 292.856 448.422, 334.500 428.408 C 389.402 402.024, 429.879 351.249, 442.920 292.404 C 456.053 233.145, 442.275 172.411, 404.790 124.335 C 374.416 85.379, 330.343 59.571, 280.500 51.553 C 269.380 49.764, 242.246 48.877, 231.500 49.950 M 233 54.051 C 214.859 55.502, 198.546 59.132, 181.500 65.510 C 165.479 71.505, 145.329 82.393, 135.023 90.625 C 110.123 110.513, 95.493 127.019, 82.195 150.227 C 68.603 173.947, 60.746 197.918, 57.518 225.510 C 54.103 254.702, 57.169 282.838, 66.953 312.100 C 82.485 358.556, 117.118 398.871, 161.175 421.780 C 215.876 450.225, 278.555 451.342, 332.957 424.841 C 353.251 414.956, 375.543 398.731, 390.198 383.180 C 451.379 318.260, 461.299 221.314, 414.569 145 C 395.759 114.282, 364.785 86.403, 333.290 71.844 C 301.171 56.997, 268.540 51.207, 233 54.051 M 245.557 76.223 C 243.505 79.151, 243.589 80.208, 246.127 83.434 C 248.190 86.056, 248.207 86.326, 246.705 92.414 C 243.579 105.078, 238.130 113.210, 234.184 111.098 C 230.860 109.320, 227.918 103.658, 228.585 100.324 C 229.316 96.671, 226.793 94.011, 224.166 95.665 C 221.637 97.258, 221.575 99.919, 224.007 102.507 C 225.753 104.366, 226.054 105.509, 225.499 108.168 C 224.548 112.726, 222.314 116, 220.157 116 C 218.050 116, 210.969 110.170, 207.983 105.976 C 206.402 103.756, 206.142 102.603, 206.903 101.181 C 207.634 99.815, 207.486 98.712, 206.356 97.098 C 204.458 94.389, 201.280 94.666, 199.265 97.716 C 197.910 99.767, 198.020 100.138, 200.747 102.716 C 202.366 104.247, 204.475 107.518, 205.432 109.985 C 208.435 117.725, 212 128.789, 212 130.367 C 212 131.200, 212.418 132.140, 212.929 132.456 C 213.440 132.772, 220.008 132.349, 227.524 131.515 C 244.855 129.594, 256.389 129.601, 273.068 131.545 C 286.839 133.150, 287.942 132.971, 287.985 129.119 C 288.001 127.625, 293.097 112.406, 295.531 106.580 C 296.354 104.611, 297.680 103, 298.478 103 C 300.980 103, 302.100 99.587, 300.396 97.155 C 297.377 92.844, 292.295 95.513, 293.456 100.799 C 294.011 103.328, 293.364 104.432, 288.154 109.840 C 281.753 116.484, 278.955 117.433, 276.619 113.750 C 274.314 110.115, 273.521 103.121, 275.335 102.425 C 279.047 101.001, 277.677 94.608, 273.784 95.189 C 270.656 95.657, 269.220 98.522, 270.826 101.093 C 271.972 102.929, 271.808 103.691, 269.522 107.146 C 268.083 109.320, 266.229 111.358, 265.402 111.676 C 261.968 112.994, 257.154 105.584, 252.910 92.450 L 250.714 85.650 252.857 83.915 C 255.227 81.996, 255.751 77.151, 253.800 75.200 C 251.811 73.211, 247.272 73.774, 245.557 76.223 M 225.140 135.556 C 219.442 136.288, 214.563 137.103, 214.299 137.368 C 214.034 137.633, 214.095 138.723, 214.434 139.791 C 214.994 141.556, 215.479 141.638, 219.775 140.695 C 226.121 139.301, 275.282 139.299, 280.719 140.692 C 284.545 141.673, 284.995 141.591, 285.560 139.811 C 285.902 138.732, 285.930 137.597, 285.621 137.288 C 285.313 136.979, 279.984 136.129, 273.780 135.397 C 259.721 133.740, 238.739 133.809, 225.140 135.556 M 215.750 161.737 C 218.637 161.939, 223.363 161.939, 226.250 161.737 C 229.137 161.535, 226.775 161.370, 221 161.370 C 215.225 161.370, 212.863 161.535, 215.750 161.737 M 237 162 C 237 162.550, 237.419 163, 237.930 163 C 238.442 163, 239.055 163.787, 239.293 164.750 C 239.530 165.713, 239.614 165.435, 239.479 164.134 C 239.250 161.934, 239.505 161.804, 243.116 162.289 C 245.252 162.575, 247 162.403, 247 161.905 C 247 161.407, 244.750 161, 242 161 C 239.250 161, 237 161.450, 237 162 M 254.655 161.750 C 254.400 162.162, 256.355 162.500, 259 162.500 C 261.645 162.500, 263.600 162.162, 263.345 161.750 C 263.091 161.338, 261.135 161, 259 161 C 256.865 161, 254.909 161.338, 254.655 161.750 M 269.998 161.750 C 269.997 162.162, 272.810 162.375, 276.248 162.222 C 287.534 161.719, 288.655 161.323, 279.250 161.160 C 274.163 161.072, 269.999 161.338, 269.998 161.750 M 222.382 174.500 C 222.384 181.100, 222.546 183.670, 222.741 180.211 C 222.937 176.752, 222.936 171.352, 222.738 168.211 C 222.540 165.070, 222.380 167.900, 222.382 174.500 M 218.343 171.500 C 218.346 175.900, 218.522 177.576, 218.733 175.224 C 218.945 172.872, 218.942 169.272, 218.727 167.224 C 218.512 165.176, 218.339 167.100, 218.343 171.500 M 239.365 177.500 C 239.368 183, 239.536 185.122, 239.738 182.216 C 239.941 179.311, 239.939 174.811, 239.734 172.216 C 239.528 169.622, 239.363 172, 239.365 177.500 M 276.150 170.050 C 276.005 172.508, 277.541 175, 279.200 175 C 279.640 175, 280 174.550, 280 174 C 280 173.450, 279.355 173, 278.566 173 C 277.770 173, 276.948 171.777, 276.716 170.250 C 276.305 167.536, 276.298 167.534, 276.150 170.050 M 276.300 180 C 276.300 183.025, 276.487 184.262, 276.716 182.750 C 276.945 181.238, 276.945 178.762, 276.716 177.250 C 276.487 175.738, 276.300 176.975, 276.300 180 M 102 206.827 C 102 207.282, 103.350 207.455, 105 207.213 C 106.650 206.971, 108 206.599, 108 206.387 C 108 206.174, 106.650 206, 105 206 C 103.350 206, 102 206.372, 102 206.827 M 118.776 206.733 C 121.128 206.945, 124.728 206.942, 126.776 206.727 C 128.824 206.512, 126.900 206.339, 122.500 206.343 C 118.100 206.346, 116.424 206.522, 118.776 206.733 M 190.711 207.880 C 191.695 208.914, 194.975 210.993, 198 212.500 L 203.500 215.240 201.123 212.671 C 199.114 210.498, 191.257 206, 189.472 206 C 189.170 206, 189.727 206.846, 190.711 207.880 M 269.250 206.739 C 272.413 206.937, 277.587 206.937, 280.750 206.739 C 283.913 206.541, 281.325 206.378, 275 206.378 C 268.675 206.378, 266.087 206.541, 269.250 206.739 M 351.762 206.707 C 353.006 206.946, 354.806 206.937, 355.762 206.687 C 356.718 206.437, 355.700 206.241, 353.500 206.252 C 351.300 206.263, 350.518 206.468, 351.762 206.707 M 383.589 206.856 C 383.298 207.326, 384.112 207.510, 385.396 207.265 C 387.312 206.898, 387.835 207.329, 388.306 209.659 C 388.911 212.649, 386.171 219.536, 380.271 229.856 L 377.208 235.212 374.610 230.778 C 372.294 226.827, 371.685 226.393, 369.006 226.786 C 366.800 227.110, 366 226.826, 366 225.720 C 366 223.705, 368.437 222.869, 370.062 224.328 C 370.876 225.059, 370.790 224.560, 369.832 223 C 368.987 221.625, 367.464 218.925, 366.446 217 L 364.596 213.500 364.043 216.473 C 363.734 218.134, 362.538 219.920, 361.333 220.521 L 359.177 221.596 362.437 227.548 C 364.230 230.822, 366.665 235.201, 367.848 237.280 C 369.562 240.291, 370.005 242.734, 370.022 249.280 L 370.044 257.500 371.999 255 L 373.955 252.500 376.441 255.500 L 378.928 258.500 378.964 248.947 C 378.998 239.851, 379.190 239.014, 382.966 231.447 C 390.682 215.987, 394.479 210.569, 398.750 208.919 C 399.988 208.441, 401 207.588, 401 207.025 C 401 205.774, 384.358 205.612, 383.589 206.856 M 306.500 209.162 C 305.400 209.768, 303.052 211.628, 301.283 213.296 C 298.325 216.084, 298.205 216.433, 299.783 217.632 C 302.572 219.751, 304.311 219.191, 307.725 215.079 C 310.343 211.925, 310.660 211.084, 309.411 210.604 C 308.565 210.280, 308.153 209.561, 308.496 209.007 C 309.268 207.758, 309.014 207.778, 306.500 209.162 M 340.300 214 C 340.300 217.025, 340.487 218.262, 340.716 216.750 C 340.945 215.238, 340.945 212.762, 340.716 211.250 C 340.487 209.738, 340.300 210.975, 340.300 214 M 138 211.757 C 138 212.723, 138.427 215.003, 138.949 216.823 C 139.471 218.643, 139.987 223.464, 140.094 227.536 C 140.202 231.607, 140.681 234.697, 141.159 234.401 C 141.637 234.106, 142.909 232.139, 143.984 230.031 C 147.770 222.610, 144.267 210, 138.418 210 C 138.188 210, 138 210.790, 138 211.757 M 108.405 230.500 C 108.406 239.300, 108.559 242.766, 108.745 238.203 C 108.930 233.639, 108.929 226.439, 108.742 222.203 C 108.555 217.966, 108.404 221.700, 108.405 230.500 M 116.180 228.500 C 115.183 237.564, 115.120 242.557, 115.922 248.908 C 116.506 253.533, 117.212 257.546, 117.492 257.825 C 117.771 258.105, 118 254.049, 118 248.813 L 118 239.294 122.750 239.745 C 125.362 239.994, 129.075 239.743, 131 239.189 C 134.399 238.210, 134.335 238.178, 128.809 238.090 C 125.679 238.041, 122.840 237.550, 122.500 237 C 122.160 236.450, 121.025 236, 119.977 236 C 118.254 236, 118.045 235.071, 117.786 226.250 L 117.500 216.500 116.180 228.500 M 229.320 229 C 229.320 232.575, 229.502 234.037, 229.723 232.250 C 229.945 230.463, 229.945 227.537, 229.723 225.750 C 229.502 223.963, 229.320 225.425, 229.320 229 M 279.232 228 C 279.232 229.925, 279.438 230.713, 279.689 229.750 C 279.941 228.787, 279.941 227.213, 279.689 226.250 C 279.438 225.287, 279.232 226.075, 279.232 228 M 301.272 233 C 301.272 235.475, 301.467 236.488, 301.706 235.250 C 301.944 234.012, 301.944 231.988, 301.706 230.750 C 301.467 229.512, 301.272 230.525, 301.272 233 M 279.349 240 C 279.349 244.675, 279.522 246.588, 279.732 244.250 C 279.943 241.912, 279.943 238.088, 279.732 235.750 C 279.522 233.412, 279.349 235.325, 279.349 240 M 229.300 241 C 229.300 244.025, 229.487 245.262, 229.716 243.750 C 229.945 242.238, 229.945 239.762, 229.716 238.250 C 229.487 236.738, 229.300 237.975, 229.300 241 M 463.336 248 C 463.336 252.125, 463.513 253.813, 463.728 251.750 C 463.944 249.688, 463.944 246.313, 463.728 244.250 C 463.513 242.188, 463.336 243.875, 463.336 248 M 299.496 255.843 C 300.586 257.131, 302.383 258.649, 303.489 259.215 C 305.613 260.303, 305.303 259.967, 300.507 255.985 C 297.620 253.588, 297.584 253.583, 299.496 255.843 M 228.286 260.750 L 226.071 263 241.536 263 C 253.553 263, 257 262.710, 257 261.701 C 257 260.804, 255.912 260.529, 253.486 260.812 C 251.554 261.037, 249.399 260.746, 248.697 260.164 C 247.800 259.419, 246.176 259.422, 243.216 260.173 C 239.993 260.991, 238.017 260.921, 234.755 259.870 C 230.735 258.576, 230.378 258.624, 228.286 260.750 M 177.750 264.706 C 178.988 264.944, 181.012 264.944, 182.250 264.706 C 183.488 264.467, 182.475 264.272, 180 264.272 C 177.525 264.272, 176.512 264.467, 177.750 264.706 M 159.250 279.735 C 161.863 279.941, 166.137 279.941, 168.750 279.735 C 171.363 279.529, 169.225 279.360, 164 279.360 C 158.775 279.360, 156.637 279.529, 159.250 279.735 M 299.252 284.500 C 299.263 286.700, 299.468 287.482, 299.707 286.238 C 299.946 284.994, 299.937 283.194, 299.687 282.238 C 299.437 281.282, 299.241 282.300, 299.252 284.500 M 344.252 285.500 C 344.263 287.700, 344.468 288.482, 344.707 287.238 C 344.946 285.994, 344.937 284.194, 344.687 283.238 C 344.437 282.282, 344.241 283.300, 344.252 285.500 M 161.035 288.789 C 159.056 297.284, 158.559 297.911, 156.154 294.947 L 154.169 292.500 153.547 295 C 153.205 296.375, 153.054 303.800, 153.212 311.500 L 153.500 325.500 156.500 325.205 C 158.876 324.971, 159.859 325.491, 161.223 327.705 C 162.919 330.455, 162.947 330.317, 162.973 319.250 L 163 308 166 308 C 168 308, 169 307.500, 169 306.500 C 169 305.504, 168.004 305, 166.033 305 L 163.066 305 162.783 293.750 L 162.500 282.500 161.035 288.789 M 184.557 298.582 C 182.160 300.335, 179.014 300.429, 178.960 298.750 C 178.938 298.063, 178.277 298.684, 177.490 300.131 C 176.704 301.579, 175.343 303.038, 174.467 303.374 C 172.512 304.124, 173.270 305.576, 175.986 306.286 C 177.095 306.576, 177.798 306.483, 177.548 306.078 C 177.299 305.674, 178.760 304.606, 180.797 303.704 C 182.834 302.802, 185.094 301.106, 185.819 299.935 C 187.487 297.243, 187.041 296.765, 184.557 298.582 M 209.232 302 C 209.232 303.925, 209.438 304.712, 209.689 303.750 C 209.941 302.788, 209.941 301.212, 209.689 300.250 C 209.438 299.288, 209.232 300.075, 209.232 302 M 165.264 336.718 C 166.784 336.947, 169.034 336.941, 170.264 336.704 C 171.494 336.467, 170.250 336.279, 167.500 336.286 C 164.750 336.294, 163.744 336.488, 165.264 336.718 M 126 361 C 126 361.661, 168 362, 250 362 C 332 362, 374 361.661, 374 361 C 374 360.339, 332 360, 250 360 C 168 360, 126 360.339, 126 361 M 203 384.283 C 201.299 385.142, 200.404 386.524, 200.199 388.607 C 199.931 391.333, 200.394 391.931, 204.434 394.074 C 209.406 396.712, 210.640 398.524, 208.895 400.627 C 207.209 402.658, 204.359 402.298, 201.953 399.750 L 199.827 397.500 200.164 400 C 200.447 402.107, 201.105 402.550, 204.348 402.816 C 208.795 403.182, 212 400.941, 212 397.467 C 212 394.997, 210.543 393.519, 205.741 391.118 C 202.178 389.336, 200.966 386.334, 203.428 385.389 C 205.803 384.478, 210 385.838, 210 387.519 C 210 388.334, 210.388 389, 210.861 389 C 211.335 389, 211.508 387.875, 211.245 386.500 C 210.982 385.125, 210.181 384, 209.465 384 C 208.749 384, 207.564 383.780, 206.832 383.510 C 206.099 383.241, 204.375 383.588, 203 384.283 M 316.903 384.638 C 313.181 388.979, 308.939 396.092, 309.515 397.025 C 309.858 397.579, 310.561 397.771, 311.078 397.452 C 312.287 396.704, 316 397.869, 316 398.996 C 316 399.470, 315.293 400.564, 314.429 401.429 C 313 402.857, 313.245 403, 317.129 403 C 320.451 403, 321.133 402.733, 320.200 401.800 C 318.755 400.355, 318.581 396.623, 320 397.500 C 320.550 397.840, 321 397.641, 321 397.059 C 321 396.477, 320.571 396, 320.046 396 C 319.521 396, 318.958 393.024, 318.796 389.388 C 318.519 383.207, 318.396 382.897, 316.903 384.638 M 180.750 385.149 C 182.390 386.790, 182.430 400.170, 180.800 401.800 C 179.867 402.733, 181.174 403, 186.683 403 C 193.379 403, 193.792 402.868, 194.229 400.585 L 194.690 398.169 191.968 400.182 C 187.910 403.182, 185.566 402.292, 185.181 397.603 C 184.870 393.815, 184.931 393.736, 187.724 394.295 C 190.039 394.758, 190.612 394.505, 190.727 392.971 C 190.846 391.390, 190.384 391.173, 187.935 391.663 C 185.120 392.226, 185 392.102, 185 388.625 C 185 385.298, 185.237 385, 187.878 385 C 189.713 385, 191.346 385.815, 192.385 387.250 L 194.014 389.500 193.757 387 C 193.513 384.629, 193.139 384.484, 186.500 384.199 C 180.898 383.958, 179.750 384.148, 180.750 385.149 M 217 386.155 C 217 388.179, 217.111 388.210, 218.829 386.655 C 219.835 385.745, 221.410 385, 222.329 385 C 224.870 385, 224.798 400.436, 222.250 401.920 C 220.870 402.724, 221.441 402.946, 224.950 402.970 C 228.411 402.993, 229.133 402.733, 228.200 401.800 C 227.472 401.072, 227 397.533, 227 392.800 C 227 384.559, 228.004 383.147, 231.429 386.571 C 232.857 388, 233 387.955, 233 386.071 C 233 384.149, 232.425 384, 225 384 C 217.475 384, 217 384.128, 217 386.155 M 256.200 385.200 C 254.187 387.213, 254.864 388.209, 257.155 386.604 C 259.935 384.657, 263 386.147, 263 389.445 C 263 390.752, 261.200 394.098, 259 396.881 C 256.800 399.664, 255 402.179, 255 402.471 C 255 402.762, 257.700 403, 261 403 C 266.808 403, 267 402.916, 267 400.378 C 267 398.209, 266.751 397.962, 265.560 398.950 C 264.769 399.607, 262.941 399.999, 261.498 399.822 L 258.876 399.500 262.438 395.624 C 265.849 391.913, 266.706 389.002, 265.393 385.582 C 264.660 383.673, 258.004 383.396, 256.200 385.200 M 275.073 386.635 C 270.524 392.418, 273.710 403, 280 403 C 284.577 403, 287.297 398.725, 286.775 392.355 C 286.538 389.466, 285.649 386.506, 284.748 385.605 C 282.215 383.073, 277.478 383.577, 275.073 386.635 M 292.980 385.524 C 291.185 387.687, 292.563 388.580, 294.581 386.562 C 295.503 385.639, 296.912 385.136, 297.711 385.442 C 298.510 385.749, 299.352 386, 299.582 386 C 299.812 386, 300 387.147, 300 388.550 C 300 391.805, 297.900 395.837, 294.595 398.924 C 293.168 400.258, 292 401.720, 292 402.174 C 292 402.628, 294.700 403, 298 403 C 303.898 403, 303.999 402.953, 303.921 400.250 C 303.878 398.738, 303.615 398.063, 303.338 398.750 C 303.060 399.438, 301.208 400, 299.220 400 L 295.608 400 298.684 396.750 C 303.301 391.871, 304.229 389.598, 302.844 386.557 C 301.899 384.482, 300.979 384, 297.962 384 C 295.852 384, 293.698 384.659, 292.980 385.524 M 276.975 387.565 C 275.518 391.398, 275.797 397.265, 277.557 399.777 C 280.827 404.447, 284 401.356, 284 393.500 C 284 390.953, 283.534 387.998, 282.965 386.934 C 281.470 384.140, 278.144 384.491, 276.975 387.565 M 313.279 392 C 311.064 395.492, 311.064 395.501, 313.115 395.831 C 315.863 396.273, 316.197 395.780, 315.821 391.846 L 315.500 388.500 313.279 392 M 235.446 400.087 C 234.505 401.610, 236.549 403.387, 238.416 402.671 C 239.314 402.326, 239.718 401.429, 239.376 400.538 C 238.694 398.759, 236.427 398.499, 235.446 400.087" stroke="none" fill="#c6a95c" fill-rule="evenodd"/><path d="M 233.389 34.966 C 219.510 36.211, 206.019 38.470, 196.500 41.143 C 151.357 53.819, 115.141 76.455, 87.934 109 C 84.945 112.575, 82.234 115.725, 81.909 116 C 81.584 116.275, 77.867 121.647, 73.649 127.937 C 65.632 139.893, 57.249 155.604, 52.538 167.500 C 51.014 171.350, 49.399 175.400, 48.949 176.500 C 48.500 177.600, 47.590 180.300, 46.927 182.500 C 46.264 184.700, 45.377 187.625, 44.956 189 C 44.241 191.336, 43.722 193.502, 41.122 205 C 38.008 218.775, 37.519 224.628, 37.535 248 C 37.545 262.818, 38.005 274.476, 38.700 277.500 C 39.332 280.250, 40.360 285.425, 40.984 289 C 45.718 316.090, 60.881 351.637, 76.818 373 C 78.664 375.475, 81.148 378.832, 82.337 380.459 C 89.275 389.952, 106.947 407.724, 118.176 416.501 C 144.183 436.827, 167.163 448.061, 201 456.989 C 226.409 463.693, 264.377 464.299, 292.500 458.450 C 307.383 455.355, 314.972 453.045, 330 447.037 C 362.133 434.190, 394.224 409.823, 417.704 380.442 C 422.828 374.029, 425.391 370.219, 432.799 358 C 441.346 343.904, 441.881 342.848, 447.043 329.899 C 450.801 320.473, 452.082 316.834, 454.931 307.500 C 455.929 304.233, 459.090 290.326, 461.183 280 C 462.975 271.156, 462.986 226.110, 461.198 216.500 C 457.842 198.464, 452.401 177.942, 449.003 170.500 C 448.500 169.400, 446.903 165.575, 445.453 162 C 439.563 147.475, 427.726 127.724, 416.687 114 C 409.530 105.102, 391.282 86.417, 386.649 83.243 C 384.851 82.011, 382.450 80.136, 381.313 79.077 C 376.227 74.338, 357.323 62.680, 344.993 56.678 C 332.158 50.430, 309.145 42.022, 299.141 39.927 C 277.699 35.435, 250.794 33.405, 233.389 34.966 M 231.500 49.950 C 170.866 56.006, 119.321 86.921, 85.526 137.500 C 59.800 176.003, 48.055 224.335, 53.451 269.500 C 57.582 304.077, 67.932 332.619, 86.221 359.868 C 113.528 400.553, 155.670 430.127, 203.158 441.932 C 247.888 453.052, 292.856 448.422, 334.500 428.408 C 389.402 402.024, 429.879 351.249, 442.920 292.404 C 456.053 233.145, 442.275 172.411, 404.790 124.335 C 374.416 85.379, 330.343 59.571, 280.500 51.553 C 269.380 49.764, 242.246 48.877, 231.500 49.950 M 233 54.051 C 214.859 55.502, 198.546 59.132, 181.500 65.510 C 165.479 71.505, 145.329 82.393, 135.023 90.625 C 110.123 110.513, 95.493 127.019, 82.195 150.227 C 68.603 173.947, 60.746 197.918, 57.518 225.510 C 54.103 254.702, 57.169 282.838, 66.953 312.100 C 82.485 358.556, 117.118 398.871, 161.175 421.780 C 215.876 450.225, 278.555 451.342, 332.957 424.841 C 353.251 414.956, 375.543 398.731, 390.198 383.180 C 451.379 318.260, 461.299 221.314, 414.569 145 C 395.759 114.282, 364.785 86.403, 333.290 71.844 C 301.171 56.997, 268.540 51.207, 233 54.051 M 245.557 76.223 C 243.505 79.151, 243.589 80.208, 246.127 83.434 C 248.190 86.056, 248.207 86.326, 246.705 92.414 C 243.579 105.078, 238.130 113.210, 234.184 111.098 C 230.860 109.320, 227.918 103.658, 228.585 100.324 C 229.316 96.671, 226.793 94.011, 224.166 95.665 C 221.637 97.258, 221.575 99.919, 224.007 102.507 C 225.753 104.366, 226.054 105.509, 225.499 108.168 C 224.548 112.726, 222.314 116, 220.157 116 C 218.050 116, 210.969 110.170, 207.983 105.976 C 206.402 103.756, 206.142 102.603, 206.903 101.181 C 207.634 99.815, 207.486 98.712, 206.356 97.098 C 204.458 94.389, 201.280 94.666, 199.265 97.716 C 197.910 99.767, 198.020 100.138, 200.747 102.716 C 202.366 104.247, 204.475 107.518, 205.432 109.985 C 208.435 117.725, 212 128.789, 212 130.367 C 212 131.200, 212.418 132.140, 212.929 132.456 C 213.440 132.772, 220.008 132.349, 227.524 131.515 C 244.855 129.594, 256.389 129.601, 273.068 131.545 C 286.839 133.150, 287.942 132.971, 287.985 129.119 C 288.001 127.625, 293.097 112.406, 295.531 106.580 C 296.354 104.611, 297.680 103, 298.478 103 C 300.980 103, 302.100 99.587, 300.396 97.155 C 297.377 92.844, 292.295 95.513, 293.456 100.799 C 294.011 103.328, 293.364 104.432, 288.154 109.840 C 281.753 116.484, 278.955 117.433, 276.619 113.750 C 274.314 110.115, 273.521 103.121, 275.335 102.425 C 279.047 101.001, 277.677 94.608, 273.784 95.189 C 270.656 95.657, 269.220 98.522, 270.826 101.093 C 271.972 102.929, 271.808 103.691, 269.522 107.146 C 268.083 109.320, 266.229 111.358, 265.402 111.676 C 261.968 112.994, 257.154 105.584, 252.910 92.450 L 250.714 85.650 252.857 83.915 C 255.227 81.996, 255.751 77.151, 253.800 75.200 C 251.811 73.211, 247.272 73.774, 245.557 76.223 M 225.140 135.556 C 219.442 136.288, 214.563 137.103, 214.299 137.368 C 214.034 137.633, 214.095 138.723, 214.434 139.791 C 214.994 141.556, 215.479 141.638, 219.775 140.695 C 226.121 139.301, 275.282 139.299, 280.719 140.692 C 284.545 141.673, 284.995 141.591, 285.560 139.811 C 285.902 138.732, 285.930 137.597, 285.621 137.288 C 285.313 136.979, 279.984 136.129, 273.780 135.397 C 259.721 133.740, 238.739 133.809, 225.140 135.556 M 210.667 161.667 C 210.300 162.033, 210.002 163.946, 210.004 165.917 L 210.007 169.500 211.989 166.250 C 213.169 164.314, 214.785 163, 215.985 163 C 217.789 163, 218.001 163.654, 218.009 169.250 C 218.013 172.688, 218.300 177.854, 218.646 180.732 C 219.229 185.590, 219.104 186.031, 216.887 186.918 C 214.986 187.679, 215.722 187.863, 220.500 187.821 C 223.800 187.792, 225.713 187.562, 224.750 187.311 C 223.207 186.907, 223 185.445, 223 174.927 C 223 168.196, 223.407 163, 223.935 163 C 226.540 163, 229.794 165.104, 230.324 167.130 C 231.211 170.521, 231.784 169.046, 231.249 164.750 L 230.781 161 221.057 161 C 215.709 161, 211.033 161.300, 210.667 161.667 M 237 161.917 C 237 162.421, 237.498 162.999, 238.107 163.202 C 239.706 163.735, 239.340 186.165, 237.716 187.197 C 237.047 187.622, 238.975 187.924, 242 187.869 C 245.025 187.813, 246.713 187.562, 245.750 187.311 C 244.330 186.939, 244 185.728, 244 180.879 L 244 174.905 250.250 175.202 L 256.500 175.500 256.797 181.168 C 257.047 185.931, 256.808 186.909, 255.297 187.302 C 254.309 187.558, 255.975 187.807, 259 187.854 C 263.186 187.919, 264.082 187.696, 262.750 186.920 C 261.245 186.043, 261 184.300, 261 174.450 C 261 164.746, 261.238 163, 262.559 163 C 263.416 163, 263.840 162.550, 263.500 162 C 263.160 161.450, 261.135 161, 259 161 C 256.865 161, 254.840 161.450, 254.500 162 C 254.160 162.550, 254.584 163, 255.441 163 C 256.664 163, 257 164.185, 257 168.500 L 257 174 250.500 174 L 244 174 244 168.500 C 244 164.278, 244.348 163, 245.500 163 C 246.325 163, 247 162.550, 247 162 C 247 161.450, 244.750 161, 242 161 C 239.250 161, 237 161.412, 237 161.917 M 270 161.893 C 270 162.384, 270.675 163.045, 271.500 163.362 C 272.707 163.825, 273 166.080, 273 174.919 C 273 184.323, 272.749 186.047, 271.250 186.920 C 269.972 187.664, 272.097 187.947, 279.125 187.970 L 288.750 188 289.382 184.840 C 290.111 181.196, 289.289 179.733, 287.903 182.209 C 285.945 185.707, 283.730 187.106, 280.625 186.804 C 277.563 186.506, 277.494 186.384, 277.200 180.750 C 276.908 175.158, 276.971 175, 279.481 175 C 280.901 175, 282.322 175.675, 282.638 176.500 C 282.955 177.325, 283.518 178, 283.890 178 C 284.469 178, 284.511 176.580, 284.081 171.550 C 284.037 171.028, 283.460 171.140, 282.800 171.800 C 282.140 172.460, 280.565 173, 279.300 173 C 277.207 173, 277 172.551, 277 168 L 277 163 280.943 163 C 283.885 163, 285.282 163.565, 286.443 165.223 C 287.990 167.431, 288 167.424, 288 164.223 L 288 161 279 161 C 274.050 161, 270 161.402, 270 161.893 M 175.500 205.638 C 167.572 206.793, 158.271 214.072, 154.589 222 C 151.551 228.543, 151.633 242.678, 154.746 249.030 C 158.049 255.771, 163.505 260.517, 170.718 262.925 C 179.111 265.726, 185.043 265.415, 193 261.756 C 196.805 260.007, 204.908 251.935, 206.809 248 C 209.040 243.382, 209.195 225.687, 207.042 221.401 C 204.220 215.785, 199.029 210.234, 194.691 208.195 C 190.219 206.093, 180.900 204.851, 175.500 205.638 M 316.500 205.683 C 302.818 207.587, 291.909 221.030, 292.076 235.779 C 292.118 239.475, 292.680 243.933, 293.326 245.684 C 295.589 251.821, 300.739 257.831, 306.199 260.707 C 310.983 263.226, 312.476 263.497, 321.500 263.488 C 329.905 263.479, 332.240 263.110, 336.142 261.179 C 340.651 258.947, 340.804 258.721, 341.484 253.284 C 341.868 250.205, 342.415 247.082, 342.699 246.343 C 343.810 243.447, 340.166 245.184, 338.945 248.133 C 335.771 255.795, 329.588 260.192, 321.823 260.309 C 308.379 260.512, 298.887 242.488, 302.928 224.431 C 304.551 217.178, 310.303 210.665, 316.454 209.116 C 325.296 206.890, 334.811 211.301, 338.054 219.131 C 339.954 223.718, 341 222.483, 341 215.652 L 341 209.304 337.250 207.718 C 333.384 206.082, 321.794 204.946, 316.500 205.683 M 102 206.933 C 102 207.446, 102.859 208.138, 103.910 208.471 C 107.799 209.706, 108.039 211.169, 108.234 234.771 C 108.434 259.022, 108.106 261, 103.878 261 C 102.845 261, 102 261.450, 102 262 C 102 262.611, 106.667 263, 114 263 C 121.333 263, 126 262.611, 126 262 C 126 261.450, 125.070 261, 123.934 261 C 122.798 261, 120.998 260.534, 119.934 259.965 C 118.226 259.050, 118 257.797, 118.001 249.215 L 118.003 239.500 125.251 239.500 C 131.385 239.500, 133.231 239.070, 137.252 236.707 C 145.328 231.959, 148.148 223.099, 144.093 215.210 C 142.202 211.532, 138.814 209.238, 132.101 207.088 C 127.940 205.756, 102 205.622, 102 206.933 M 214 206.981 C 214 207.520, 215.158 208.252, 216.573 208.608 C 218.013 208.969, 219.554 210.327, 220.073 211.692 C 221.095 214.381, 221.340 254.130, 220.356 257.801 C 219.953 259.308, 218.749 260.300, 216.870 260.676 C 209.353 262.179, 215.886 263, 235.370 263 L 256.740 263 257.325 258.750 C 257.647 256.413, 258.215 252.588, 258.587 250.250 C 259.118 246.915, 258.955 246, 257.833 246 C 257.046 246, 255.865 247.483, 255.210 249.297 C 252.065 257.994, 243.868 262.388, 235.162 260.044 C 232.920 259.440, 230.786 258.463, 230.422 257.874 C 229.363 256.160, 229.253 213.728, 230.302 211.327 C 230.824 210.132, 232.319 208.886, 233.625 208.558 C 234.931 208.230, 236 207.520, 236 206.981 C 236 206.399, 231.524 206, 225 206 C 218.476 206, 214 206.399, 214 206.981 M 264 207.375 C 264 208.131, 265.292 209.008, 266.870 209.324 C 268.749 209.700, 269.953 210.692, 270.356 212.199 C 270.695 213.465, 270.979 223.962, 270.986 235.527 C 271.001 257.968, 270.401 261, 265.943 261 C 264.874 261, 264 261.450, 264 262 C 264 262.606, 268.333 263, 275 263 C 281.667 263, 286 262.606, 286 262 C 286 261.450, 285.155 261, 284.122 261 C 280.114 261, 279.754 258.958, 279.515 234.852 C 279.302 213.462, 279.425 211.575, 281.142 209.858 C 282.164 208.836, 283.675 208, 284.500 208 C 285.325 208, 286 207.550, 286 207 C 286 206.394, 281.667 206, 275 206 C 266.333 206, 264 206.292, 264 207.375 M 347 206.974 C 347 207.510, 348.313 208.627, 349.917 209.457 C 352.698 210.895, 356.102 215.826, 362.717 228 C 364.361 231.025, 366.672 235.201, 367.853 237.280 C 369.579 240.319, 370 242.709, 370 249.459 C 370 258.655, 368.868 261, 364.429 261 C 363.093 261, 362 261.450, 362 262 C 362 262.611, 366.667 263, 374 263 C 381.333 263, 386 262.611, 386 262 C 386 261.450, 384.965 261, 383.700 261 C 379.699 261, 379 259.215, 379 248.997 C 379 239.810, 379.172 239.050, 382.966 231.447 C 390.682 215.987, 394.479 210.569, 398.750 208.919 C 403.367 207.135, 400.959 206, 392.559 206 C 384.272 206, 380.520 207.340, 385.387 208.561 C 386.744 208.902, 388.124 209.881, 388.453 210.738 C 389.076 212.362, 385.513 220.687, 380.267 229.862 L 377.201 235.225 370.205 223.422 C 366.357 216.930, 363.437 211.026, 363.715 210.301 C 363.993 209.576, 365.293 208.714, 366.603 208.385 C 367.914 208.056, 368.738 207.385, 368.434 206.893 C 367.673 205.663, 347 205.741, 347 206.974 M 173.500 209.665 C 166.932 213.136, 164.035 217.608, 162.014 227.396 C 159.493 239.611, 165.156 255.267, 173.761 259.872 C 177.519 261.883, 186.314 261.263, 190.087 258.720 C 201.074 251.317, 203.038 228.895, 193.872 215.518 C 189.223 208.734, 180.180 206.136, 173.500 209.665 M 118.547 210.138 C 117.823 212.209, 117.674 215.596, 117.844 226.139 L 118 235.777 121.257 236.388 C 129.954 238.020, 136 232.741, 136 223.516 C 136 215.136, 132.146 210.744, 123.678 209.474 C 120.167 208.948, 118.906 209.111, 118.547 210.138 M 219.216 279.891 C 212.127 282.339, 205.674 288.094, 202.274 295 C 200.177 299.260, 199.254 315.083, 200.896 318.621 C 201.503 319.930, 202.560 322.189, 203.245 323.641 C 205.055 327.483, 209.893 332.209, 214.636 334.768 C 218.006 336.587, 220.375 337, 227.426 337 C 237.317 337, 241.894 335.278, 248.313 329.144 C 251.854 325.760, 252.807 324.189, 255.859 316.703 C 256.487 315.165, 257 310.729, 257 306.846 C 257 286.269, 238.650 273.178, 219.216 279.891 M 276.408 279.520 C 274.707 280.267, 271.894 282.495, 270.158 284.473 C 267.373 287.644, 267 288.771, 267 294 C 267 299.255, 267.367 300.349, 270.223 303.602 C 272.339 306.012, 276.629 308.750, 282.709 311.572 C 290.432 315.156, 292.244 316.444, 293.617 319.324 C 299.744 332.171, 281.905 339.628, 272.009 328.357 C 270.308 326.421, 268.651 323.505, 268.326 321.879 C 267.256 316.529, 265.625 319.337, 265.897 326.061 C 266.174 332.884, 266.469 333.314, 272.500 335.674 C 276.537 337.254, 288.201 337.301, 291.138 335.750 C 298.964 331.615, 302 327.263, 302 320.177 C 302 311.739, 299.629 308.957, 287.236 302.854 C 281.591 300.074, 276.304 296.844, 275.486 295.677 C 274.669 294.510, 274 291.888, 274 289.850 C 274 284.884, 277.558 282, 283.685 282 C 290.006 282, 293.812 284.320, 296.145 289.595 C 297.228 292.044, 298.539 293.785, 299.057 293.465 C 299.576 293.144, 300 290.226, 300 286.980 L 300 281.077 294.818 279.539 C 288.563 277.681, 280.617 277.673, 276.408 279.520 M 322.231 279.188 C 320.433 279.800, 317.395 282.034, 315.481 284.153 C 312.326 287.644, 312 288.565, 312 293.968 C 312 299.240, 312.368 300.349, 315.175 303.547 C 317.192 305.844, 321.767 308.792, 327.713 311.627 C 335.457 315.319, 337.359 316.686, 338.717 319.533 C 342.619 327.715, 336.214 335.009, 326.417 333.540 C 321.166 332.752, 315.903 328.138, 313.882 322.549 C 313.176 320.597, 312.177 319, 311.662 319 C 310.401 319, 311.483 331.883, 312.860 333.260 C 314.931 335.331, 321.555 336.970, 327.912 336.985 C 339.229 337.012, 347.170 330.131, 347.289 320.194 C 347.392 311.653, 343.185 307.055, 330.684 302.045 C 319.931 297.736, 316.152 290.890, 321.073 284.635 C 322.816 282.419, 323.936 282, 328.122 282 C 335.086 282, 338.710 284.157, 341.095 289.721 C 343.597 295.558, 345.230 294.317, 344.807 286.901 C 344.536 282.148, 344.176 281.362, 341.741 280.199 C 338.019 278.423, 326.272 277.814, 322.231 279.188 M 151.250 279.668 C 147.093 280.105, 145.165 282, 148.878 282 C 152.992 282, 153.337 284.008, 153.215 307.302 C 153.152 319.511, 153.077 330.086, 153.050 330.802 C 153.022 331.518, 151.650 332.575, 150 333.150 C 148.350 333.725, 147 334.532, 147 334.944 C 147 335.356, 152.287 335.966, 158.750 336.300 C 177.388 337.263, 186.336 334.601, 190.248 326.929 C 194.584 318.426, 190.513 310.837, 179.500 306.894 L 176.500 305.820 180.671 303.836 C 190.460 299.180, 190.491 286.492, 180.725 281.460 C 177.411 279.753, 160.325 278.714, 151.250 279.668 M 222.655 282.413 C 217.616 284.269, 214.587 287.219, 211.942 292.847 C 208.866 299.391, 208.881 314.328, 211.970 321.500 C 217.797 335.028, 230.238 338.692, 239.752 329.683 C 244.483 325.203, 247 317.622, 247 307.855 C 247 300.928, 246.569 298.884, 243.958 293.412 C 239.060 283.150, 231.398 279.193, 222.655 282.413 M 163 293.391 L 163 304.781 166.548 305.195 C 173.454 306.002, 179 301.015, 179 294 C 179 287.094, 173.715 282, 166.550 282 L 163 282 163 293.391 M 163 319.325 C 163 329.775, 163.193 331.033, 164.934 331.965 C 169.999 334.675, 179.078 331.555, 181.025 326.434 C 183.467 320.012, 181.152 312.304, 176.085 309.990 C 174.663 309.340, 171.137 308.564, 168.250 308.265 L 163 307.720 163 319.325 M 126 361 C 126 361.661, 168 362, 250 362 C 332 362, 374 361.661, 374 361 C 374 360.339, 332 360, 250 360 C 168 360, 126 360.339, 126 361 M 203 384.283 C 201.299 385.142, 200.404 386.524, 200.199 388.607 C 199.931 391.333, 200.394 391.931, 204.434 394.074 C 209.406 396.712, 210.640 398.524, 208.895 400.627 C 207.209 402.658, 204.359 402.298, 201.953 399.750 L 199.827 397.500 200.164 400 C 200.447 402.107, 201.105 402.550, 204.348 402.816 C 208.795 403.182, 212 400.941, 212 397.467 C 212 394.997, 210.543 393.519, 205.741 391.118 C 202.178 389.336, 200.966 386.334, 203.428 385.389 C 205.803 384.478, 210 385.838, 210 387.519 C 210 388.334, 210.388 389, 210.861 389 C 211.335 389, 211.508 387.875, 211.245 386.500 C 210.982 385.125, 210.181 384, 209.465 384 C 208.749 384, 207.564 383.780, 206.832 383.510 C 206.099 383.241, 204.375 383.588, 203 384.283 M 316.903 384.638 C 313.181 388.979, 308.939 396.092, 309.515 397.025 C 309.858 397.579, 310.561 397.771, 311.078 397.452 C 312.287 396.704, 316 397.869, 316 398.996 C 316 399.470, 315.293 400.564, 314.429 401.429 C 313 402.857, 313.245 403, 317.129 403 C 320.451 403, 321.133 402.733, 320.200 401.800 C 318.755 400.355, 318.581 396.623, 320 397.500 C 320.550 397.840, 321 397.641, 321 397.059 C 321 396.477, 320.571 396, 320.046 396 C 319.521 396, 318.958 393.024, 318.796 389.388 C 318.519 383.207, 318.396 382.897, 316.903 384.638 M 180.750 385.149 C 182.390 386.790, 182.430 400.170, 180.800 401.800 C 179.867 402.733, 181.174 403, 186.683 403 C 193.379 403, 193.792 402.868, 194.229 400.585 L 194.690 398.169 191.968 400.182 C 187.910 403.182, 185.566 402.292, 185.181 397.603 C 184.870 393.815, 184.931 393.736, 187.724 394.295 C 190.039 394.758, 190.612 394.505, 190.727 392.971 C 190.846 391.390, 190.384 391.173, 187.935 391.663 C 185.120 392.226, 185 392.102, 185 388.625 C 185 385.298, 185.237 385, 187.878 385 C 189.713 385, 191.346 385.815, 192.385 387.250 L 194.014 389.500 193.757 387 C 193.513 384.629, 193.139 384.484, 186.500 384.199 C 180.898 383.958, 179.750 384.148, 180.750 385.149 M 217 386.155 C 217 388.179, 217.111 388.210, 218.829 386.655 C 219.835 385.745, 221.410 385, 222.329 385 C 224.870 385, 224.798 400.436, 222.250 401.920 C 220.870 402.724, 221.441 402.946, 224.950 402.970 C 228.411 402.993, 229.133 402.733, 228.200 401.800 C 227.472 401.072, 227 397.533, 227 392.800 C 227 384.559, 228.004 383.147, 231.429 386.571 C 232.857 388, 233 387.955, 233 386.071 C 233 384.149, 232.425 384, 225 384 C 217.475 384, 217 384.128, 217 386.155 M 256.200 385.200 C 254.187 387.213, 254.864 388.209, 257.155 386.604 C 259.935 384.657, 263 386.147, 263 389.445 C 263 390.752, 261.200 394.098, 259 396.881 C 256.800 399.664, 255 402.179, 255 402.471 C 255 402.762, 257.700 403, 261 403 C 266.808 403, 267 402.916, 267 400.378 C 267 398.209, 266.751 397.962, 265.560 398.950 C 264.769 399.607, 262.941 399.999, 261.498 399.822 L 258.876 399.500 262.438 395.624 C 265.849 391.913, 266.706 389.002, 265.393 385.582 C 264.660 383.673, 258.004 383.396, 256.200 385.200 M 275.073 386.635 C 270.524 392.418, 273.710 403, 280 403 C 284.577 403, 287.297 398.725, 286.775 392.355 C 286.538 389.466, 285.649 386.506, 284.748 385.605 C 282.215 383.073, 277.478 383.577, 275.073 386.635 M 292.980 385.524 C 291.185 387.687, 292.563 388.580, 294.581 386.562 C 295.503 385.639, 296.912 385.136, 297.711 385.442 C 298.510 385.749, 299.352 386, 299.582 386 C 299.812 386, 300 387.147, 300 388.550 C 300 391.805, 297.900 395.837, 294.595 398.924 C 293.168 400.258, 292 401.720, 292 402.174 C 292 402.628, 294.700 403, 298 403 C 303.898 403, 303.999 402.953, 303.921 400.250 C 303.878 398.738, 303.615 398.063, 303.338 398.750 C 303.060 399.438, 301.208 400, 299.220 400 L 295.608 400 298.684 396.750 C 303.301 391.871, 304.229 389.598, 302.844 386.557 C 301.899 384.482, 300.979 384, 297.962 384 C 295.852 384, 293.698 384.659, 292.980 385.524 M 276.975 387.565 C 275.518 391.398, 275.797 397.265, 277.557 399.777 C 280.827 404.447, 284 401.356, 284 393.500 C 284 390.953, 283.534 387.998, 282.965 386.934 C 281.470 384.140, 278.144 384.491, 276.975 387.565 M 313.279 392 C 311.064 395.492, 311.064 395.501, 313.115 395.831 C 315.863 396.273, 316.197 395.780, 315.821 391.846 L 315.500 388.500 313.279 392 M 235.446 400.087 C 234.505 401.610, 236.549 403.387, 238.416 402.671 C 239.314 402.326, 239.718 401.429, 239.376 400.538 C 238.694 398.759, 236.427 398.499, 235.446 400.087" stroke="none" fill="#261538" fill-rule="evenodd"/></svg>